<?xml version="1.0" encoding="utf-8" standalone="no"?>
<!DOCTYPE svg PUBLIC "-//W3C//DTD SVG 1.1//EN"
  "http://www.w3.org/Graphics/SVG/1.1/DTD/svg11.dtd">
<svg xmlns:xlink="http://www.w3.org/1999/xlink" width="497.88pt" height="764.767969pt" viewBox="0 0 497.88 764.767969" xmlns="http://www.w3.org/2000/svg" version="1.1">
 <metadata>
  <rdf:RDF xmlns:dc="http://purl.org/dc/elements/1.1/" xmlns:cc="http://creativecommons.org/ns#" xmlns:rdf="http://www.w3.org/1999/02/22-rdf-syntax-ns#">
   <cc:Work>
    <dc:type rdf:resource="http://purl.org/dc/dcmitype/StillImage"/>
    <dc:date>2026-05-20T15:55:44.990827</dc:date>
    <dc:format>image/svg+xml</dc:format>
    <dc:creator>
     <cc:Agent>
      <dc:title>Matplotlib v3.10.9, https://matplotlib.org/</dc:title>
     </cc:Agent>
    </dc:creator>
   </cc:Work>
  </rdf:RDF>
 </metadata>
 <defs>
  <style type="text/css">*{stroke-linejoin: round; stroke-linecap: butt}</style>
 </defs>
 <g id="figure_1">
  <g id="patch_1">
   <path d="M 0 764.767969 
L 497.88 764.767969 
L 497.88 0 
L 0 0 
z
" style="fill: #ffffff"/>
  </g>
  <g id="axes_1">
   <g id="patch_2">
    <path d="M 272.560645 120.018145 
L 305.773548 120.018145 
L 305.773548 86.805242 
L 272.560645 86.805242 
z
" clip-path="url(#pb2635e8da7)" style="fill: #3b66dd; stroke: #000000; stroke-width: 0.4; stroke-linejoin: miter"/>
   </g>
   <g id="patch_3">
    <path d="M 305.773548 120.018145 
L 338.986452 120.018145 
L 338.986452 86.805242 
L 305.773548 86.805242 
z
" clip-path="url(#pb2635e8da7)" style="fill: #3b66dd; stroke: #000000; stroke-width: 0.4; stroke-linejoin: miter"/>
   </g>
   <g id="patch_4">
    <path d="M 338.986452 120.018145 
L 372.199355 120.018145 
L 372.199355 86.805242 
L 338.986452 86.805242 
z
" clip-path="url(#pb2635e8da7)" style="fill: #4a71e0; stroke: #000000; stroke-width: 0.4; stroke-linejoin: miter"/>
   </g>
   <g id="patch_5">
    <path d="M 272.560645 153.231048 
L 305.773548 153.231048 
L 305.773548 120.018145 
L 272.560645 120.018145 
z
" clip-path="url(#pb2635e8da7)" style="fill: #1d4ed8; stroke: #000000; stroke-width: 0.4; stroke-linejoin: miter"/>
   </g>
   <g id="patch_6">
    <path d="M 305.773548 153.231048 
L 338.986452 153.231048 
L 338.986452 120.018145 
L 305.773548 120.018145 
z
" clip-path="url(#pb2635e8da7)" style="fill: #597de2; stroke: #000000; stroke-width: 0.4; stroke-linejoin: miter"/>
   </g>
   <g id="patch_7">
    <path d="M 338.986452 153.231048 
L 372.199355 153.231048 
L 372.199355 120.018145 
L 338.986452 120.018145 
z
" clip-path="url(#pb2635e8da7)" style="fill: #597de2; stroke: #000000; stroke-width: 0.4; stroke-linejoin: miter"/>
   </g>
   <g id="patch_8">
    <path d="M 272.560645 186.443952 
L 305.773548 186.443952 
L 305.773548 153.231048 
L 272.560645 153.231048 
z
" clip-path="url(#pb2635e8da7)" style="fill: #3b66dd; stroke: #000000; stroke-width: 0.4; stroke-linejoin: miter"/>
   </g>
   <g id="patch_9">
    <path d="M 305.773548 186.443952 
L 338.986452 186.443952 
L 338.986452 153.231048 
L 305.773548 153.231048 
z
" clip-path="url(#pb2635e8da7)" style="fill: #2c5adb; stroke: #000000; stroke-width: 0.4; stroke-linejoin: miter"/>
   </g>
   <g id="patch_10">
    <path d="M 338.986452 186.443952 
L 372.199355 186.443952 
L 372.199355 153.231048 
L 338.986452 153.231048 
z
" clip-path="url(#pb2635e8da7)" style="fill: #2c5adb; stroke: #000000; stroke-width: 0.4; stroke-linejoin: miter"/>
   </g>
   <g id="patch_11">
    <path d="M 272.560645 219.656855 
L 305.773548 219.656855 
L 305.773548 186.443952 
L 272.560645 186.443952 
z
" clip-path="url(#pb2635e8da7)" style="fill: #3b66dd; stroke: #000000; stroke-width: 0.4; stroke-linejoin: miter"/>
   </g>
   <g id="patch_12">
    <path d="M 305.773548 219.656855 
L 338.986452 219.656855 
L 338.986452 186.443952 
L 305.773548 186.443952 
z
" clip-path="url(#pb2635e8da7)" style="fill: #4a71e0; stroke: #000000; stroke-width: 0.4; stroke-linejoin: miter"/>
   </g>
   <g id="patch_13">
    <path d="M 338.986452 219.656855 
L 372.199355 219.656855 
L 372.199355 186.443952 
L 338.986452 186.443952 
z
" clip-path="url(#pb2635e8da7)" style="fill: #4a71e0; stroke: #000000; stroke-width: 0.4; stroke-linejoin: miter"/>
   </g>
   <g id="patch_14">
    <path d="M 272.560645 252.869758 
L 305.773548 252.869758 
L 305.773548 219.656855 
L 272.560645 219.656855 
z
" clip-path="url(#pb2635e8da7)" style="fill: #1d4ed8; stroke: #000000; stroke-width: 0.4; stroke-linejoin: miter"/>
   </g>
   <g id="patch_15">
    <path d="M 305.773548 252.869758 
L 338.986452 252.869758 
L 338.986452 219.656855 
L 305.773548 219.656855 
z
" clip-path="url(#pb2635e8da7)" style="fill: #597de2; stroke: #000000; stroke-width: 0.4; stroke-linejoin: miter"/>
   </g>
   <g id="patch_16">
    <path d="M 338.986452 252.869758 
L 372.199355 252.869758 
L 372.199355 219.656855 
L 338.986452 219.656855 
z
" clip-path="url(#pb2635e8da7)" style="fill: #2c5adb; stroke: #000000; stroke-width: 0.4; stroke-linejoin: miter"/>
   </g>
   <g id="patch_17">
    <path d="M 272.560645 286.082661 
L 305.773548 286.082661 
L 305.773548 252.869758 
L 272.560645 252.869758 
z
" clip-path="url(#pb2635e8da7)" style="fill: #1d4ed8; stroke: #000000; stroke-width: 0.4; stroke-linejoin: miter"/>
   </g>
   <g id="patch_18">
    <path d="M 305.773548 286.082661 
L 338.986452 286.082661 
L 338.986452 252.869758 
L 305.773548 252.869758 
z
" clip-path="url(#pb2635e8da7)" style="fill: #6889e5; stroke: #000000; stroke-width: 0.4; stroke-linejoin: miter"/>
   </g>
   <g id="patch_19">
    <path d="M 338.986452 286.082661 
L 372.199355 286.082661 
L 372.199355 252.869758 
L 338.986452 252.869758 
z
" clip-path="url(#pb2635e8da7)" style="fill: #3b66dd; stroke: #000000; stroke-width: 0.4; stroke-linejoin: miter"/>
   </g>
   <g id="patch_20">
    <path d="M 272.560645 319.295565 
L 305.773548 319.295565 
L 305.773548 286.082661 
L 272.560645 286.082661 
z
" clip-path="url(#pb2635e8da7)" style="fill: #4a71e0; stroke: #000000; stroke-width: 0.4; stroke-linejoin: miter"/>
   </g>
   <g id="patch_21">
    <path d="M 305.773548 319.295565 
L 338.986452 319.295565 
L 338.986452 286.082661 
L 305.773548 286.082661 
z
" clip-path="url(#pb2635e8da7)" style="fill: #4a71e0; stroke: #000000; stroke-width: 0.4; stroke-linejoin: miter"/>
   </g>
   <g id="patch_22">
    <path d="M 338.986452 319.295565 
L 372.199355 319.295565 
L 372.199355 286.082661 
L 338.986452 286.082661 
z
" clip-path="url(#pb2635e8da7)" style="fill: #597de2; stroke: #000000; stroke-width: 0.4; stroke-linejoin: miter"/>
   </g>
   <g id="patch_23">
    <path d="M 272.560645 352.508468 
L 305.773548 352.508468 
L 305.773548 319.295565 
L 272.560645 319.295565 
z
" clip-path="url(#pb2635e8da7)" style="fill: #3b66dd; stroke: #000000; stroke-width: 0.4; stroke-linejoin: miter"/>
   </g>
   <g id="patch_24">
    <path d="M 305.773548 352.508468 
L 338.986452 352.508468 
L 338.986452 319.295565 
L 305.773548 319.295565 
z
" clip-path="url(#pb2635e8da7)" style="fill: #4a71e0; stroke: #000000; stroke-width: 0.4; stroke-linejoin: miter"/>
   </g>
   <g id="patch_25">
    <path d="M 338.986452 352.508468 
L 372.199355 352.508468 
L 372.199355 319.295565 
L 338.986452 319.295565 
z
" clip-path="url(#pb2635e8da7)" style="fill: #3b66dd; stroke: #000000; stroke-width: 0.4; stroke-linejoin: miter"/>
   </g>
   <g id="patch_26">
    <path d="M 272.560645 385.721371 
L 305.773548 385.721371 
L 305.773548 352.508468 
L 272.560645 352.508468 
z
" clip-path="url(#pb2635e8da7)" style="fill: #1d4ed8; stroke: #000000; stroke-width: 0.4; stroke-linejoin: miter"/>
   </g>
   <g id="patch_27">
    <path d="M 305.773548 385.721371 
L 338.986452 385.721371 
L 338.986452 352.508468 
L 305.773548 352.508468 
z
" clip-path="url(#pb2635e8da7)" style="fill: #3b66dd; stroke: #000000; stroke-width: 0.4; stroke-linejoin: miter"/>
   </g>
   <g id="patch_28">
    <path d="M 338.986452 385.721371 
L 372.199355 385.721371 
L 372.199355 352.508468 
L 338.986452 352.508468 
z
" clip-path="url(#pb2635e8da7)" style="fill: #2c5adb; stroke: #000000; stroke-width: 0.4; stroke-linejoin: miter"/>
   </g>
   <g id="patch_29">
    <path d="M 272.560645 418.934274 
L 305.773548 418.934274 
L 305.773548 385.721371 
L 272.560645 385.721371 
z
" clip-path="url(#pb2635e8da7)" style="fill: #1d4ed8; stroke: #000000; stroke-width: 0.4; stroke-linejoin: miter"/>
   </g>
   <g id="patch_30">
    <path d="M 305.773548 418.934274 
L 338.986452 418.934274 
L 338.986452 385.721371 
L 305.773548 385.721371 
z
" clip-path="url(#pb2635e8da7)" style="fill: #597de2; stroke: #000000; stroke-width: 0.4; stroke-linejoin: miter"/>
   </g>
   <g id="patch_31">
    <path d="M 338.986452 418.934274 
L 372.199355 418.934274 
L 372.199355 385.721371 
L 338.986452 385.721371 
z
" clip-path="url(#pb2635e8da7)" style="fill: #3b66dd; stroke: #000000; stroke-width: 0.4; stroke-linejoin: miter"/>
   </g>
   <g id="patch_32">
    <path d="M 272.560645 452.147177 
L 305.773548 452.147177 
L 305.773548 418.934274 
L 272.560645 418.934274 
z
" clip-path="url(#pb2635e8da7)" style="fill: #1d4ed8; stroke: #000000; stroke-width: 0.4; stroke-linejoin: miter"/>
   </g>
   <g id="patch_33">
    <path d="M 305.773548 452.147177 
L 338.986452 452.147177 
L 338.986452 418.934274 
L 305.773548 418.934274 
z
" clip-path="url(#pb2635e8da7)" style="fill: #597de2; stroke: #000000; stroke-width: 0.4; stroke-linejoin: miter"/>
   </g>
   <g id="patch_34">
    <path d="M 338.986452 452.147177 
L 372.199355 452.147177 
L 372.199355 418.934274 
L 338.986452 418.934274 
z
" clip-path="url(#pb2635e8da7)" style="fill: #1d4ed8; stroke: #000000; stroke-width: 0.4; stroke-linejoin: miter"/>
   </g>
   <g id="patch_35">
    <path d="M 272.560645 485.360081 
L 305.773548 485.360081 
L 305.773548 452.147177 
L 272.560645 452.147177 
z
" clip-path="url(#pb2635e8da7)" style="fill: #1d4ed8; stroke: #000000; stroke-width: 0.4; stroke-linejoin: miter"/>
   </g>
   <g id="patch_36">
    <path d="M 305.773548 485.360081 
L 338.986452 485.360081 
L 338.986452 452.147177 
L 305.773548 452.147177 
z
" clip-path="url(#pb2635e8da7)" style="fill: #4a71e0; stroke: #000000; stroke-width: 0.4; stroke-linejoin: miter"/>
   </g>
   <g id="patch_37">
    <path d="M 338.986452 485.360081 
L 372.199355 485.360081 
L 372.199355 452.147177 
L 338.986452 452.147177 
z
" clip-path="url(#pb2635e8da7)" style="fill: #2c5adb; stroke: #000000; stroke-width: 0.4; stroke-linejoin: miter"/>
   </g>
   <g id="patch_38">
    <path d="M 272.560645 518.572984 
L 305.773548 518.572984 
L 305.773548 485.360081 
L 272.560645 485.360081 
z
" clip-path="url(#pb2635e8da7)" style="fill: #1d4ed8; stroke: #000000; stroke-width: 0.4; stroke-linejoin: miter"/>
   </g>
   <g id="patch_39">
    <path d="M 305.773548 518.572984 
L 338.986452 518.572984 
L 338.986452 485.360081 
L 305.773548 485.360081 
z
" clip-path="url(#pb2635e8da7)" style="fill: #597de2; stroke: #000000; stroke-width: 0.4; stroke-linejoin: miter"/>
   </g>
   <g id="patch_40">
    <path d="M 338.986452 518.572984 
L 372.199355 518.572984 
L 372.199355 485.360081 
L 338.986452 485.360081 
z
" clip-path="url(#pb2635e8da7)" style="fill: #3b66dd; stroke: #000000; stroke-width: 0.4; stroke-linejoin: miter"/>
   </g>
   <g id="patch_41">
    <path d="M 272.560645 551.785887 
L 305.773548 551.785887 
L 305.773548 518.572984 
L 272.560645 518.572984 
z
" clip-path="url(#pb2635e8da7)" style="fill: #3b66dd; stroke: #000000; stroke-width: 0.4; stroke-linejoin: miter"/>
   </g>
   <g id="patch_42">
    <path d="M 305.773548 551.785887 
L 338.986452 551.785887 
L 338.986452 518.572984 
L 305.773548 518.572984 
z
" clip-path="url(#pb2635e8da7)" style="fill: #6889e5; stroke: #000000; stroke-width: 0.4; stroke-linejoin: miter"/>
   </g>
   <g id="patch_43">
    <path d="M 338.986452 551.785887 
L 372.199355 551.785887 
L 372.199355 518.572984 
L 338.986452 518.572984 
z
" clip-path="url(#pb2635e8da7)" style="fill: #3b66dd; stroke: #000000; stroke-width: 0.4; stroke-linejoin: miter"/>
   </g>
   <g id="patch_44">
    <path d="M 272.560645 584.99879 
L 305.773548 584.99879 
L 305.773548 551.785887 
L 272.560645 551.785887 
z
" clip-path="url(#pb2635e8da7)" style="fill: #4a71e0; stroke: #000000; stroke-width: 0.4; stroke-linejoin: miter"/>
   </g>
   <g id="patch_45">
    <path d="M 305.773548 584.99879 
L 338.986452 584.99879 
L 338.986452 551.785887 
L 305.773548 551.785887 
z
" clip-path="url(#pb2635e8da7)" style="fill: #597de2; stroke: #000000; stroke-width: 0.4; stroke-linejoin: miter"/>
   </g>
   <g id="patch_46">
    <path d="M 338.986452 584.99879 
L 372.199355 584.99879 
L 372.199355 551.785887 
L 338.986452 551.785887 
z
" clip-path="url(#pb2635e8da7)" style="fill: #3b66dd; stroke: #000000; stroke-width: 0.4; stroke-linejoin: miter"/>
   </g>
   <g id="patch_47">
    <path d="M 272.560645 618.211694 
L 305.773548 618.211694 
L 305.773548 584.99879 
L 272.560645 584.99879 
z
" clip-path="url(#pb2635e8da7)" style="fill: #1d4ed8; stroke: #000000; stroke-width: 0.4; stroke-linejoin: miter"/>
   </g>
   <g id="patch_48">
    <path d="M 305.773548 618.211694 
L 338.986452 618.211694 
L 338.986452 584.99879 
L 305.773548 584.99879 
z
" clip-path="url(#pb2635e8da7)" style="fill: #4a71e0; stroke: #000000; stroke-width: 0.4; stroke-linejoin: miter"/>
   </g>
   <g id="patch_49">
    <path d="M 338.986452 618.211694 
L 372.199355 618.211694 
L 372.199355 584.99879 
L 338.986452 584.99879 
z
" clip-path="url(#pb2635e8da7)" style="fill: #1d4ed8; stroke: #000000; stroke-width: 0.4; stroke-linejoin: miter"/>
   </g>
   <g id="patch_50">
    <path d="M 272.560645 651.424597 
L 305.773548 651.424597 
L 305.773548 618.211694 
L 272.560645 618.211694 
z
" clip-path="url(#pb2635e8da7)" style="fill: #1d4ed8; stroke: #000000; stroke-width: 0.4; stroke-linejoin: miter"/>
   </g>
   <g id="patch_51">
    <path d="M 305.773548 651.424597 
L 338.986452 651.424597 
L 338.986452 618.211694 
L 305.773548 618.211694 
z
" clip-path="url(#pb2635e8da7)" style="fill: #6889e5; stroke: #000000; stroke-width: 0.4; stroke-linejoin: miter"/>
   </g>
   <g id="patch_52">
    <path d="M 338.986452 651.424597 
L 372.199355 651.424597 
L 372.199355 618.211694 
L 338.986452 618.211694 
z
" clip-path="url(#pb2635e8da7)" style="fill: #2c5adb; stroke: #000000; stroke-width: 0.4; stroke-linejoin: miter"/>
   </g>
   <g id="patch_53">
    <path d="M 272.560645 684.6375 
L 305.773548 684.6375 
L 305.773548 651.424597 
L 272.560645 651.424597 
z
" clip-path="url(#pb2635e8da7)" style="fill: #3b66dd; stroke: #000000; stroke-width: 0.4; stroke-linejoin: miter"/>
   </g>
   <g id="patch_54">
    <path d="M 305.773548 684.6375 
L 338.986452 684.6375 
L 338.986452 651.424597 
L 305.773548 651.424597 
z
" clip-path="url(#pb2635e8da7)" style="fill: #4a71e0; stroke: #000000; stroke-width: 0.4; stroke-linejoin: miter"/>
   </g>
   <g id="patch_55">
    <path d="M 338.986452 684.6375 
L 372.199355 684.6375 
L 372.199355 651.424597 
L 338.986452 651.424597 
z
" clip-path="url(#pb2635e8da7)" style="fill: #4a71e0; stroke: #000000; stroke-width: 0.4; stroke-linejoin: miter"/>
   </g>
   <g id="text_1">
    <text style="font-weight: 700; font-size: 9px; font-family: 'DejaVu Sans'; text-anchor: middle; fill: #ffffff" x="289.167097" y="105.895131" transform="rotate(-0 289.167097 105.895131)">13</text>
   </g>
   <g id="text_2">
    <text style="font-weight: 700; font-size: 9px; font-family: 'DejaVu Sans'; text-anchor: middle; fill: #ffffff" x="322.38" y="105.895131" transform="rotate(-0 322.38 105.895131)">13</text>
   </g>
   <g id="text_3">
    <text style="font-weight: 700; font-size: 9px; font-family: 'DejaVu Sans'; text-anchor: middle; fill: #ffffff" x="355.592903" y="105.895131" transform="rotate(-0 355.592903 105.895131)">12</text>
   </g>
   <g id="text_4">
    <text style="font-weight: 700; font-size: 9px; font-family: 'DejaVu Sans'; text-anchor: middle; fill: #ffffff" x="289.167097" y="139.108034" transform="rotate(-0 289.167097 139.108034)">15</text>
   </g>
   <g id="text_5">
    <text style="font-weight: 700; font-size: 9px; font-family: 'DejaVu Sans'; text-anchor: middle; fill: #ffffff" x="322.38" y="139.108034" transform="rotate(-0 322.38 139.108034)">11</text>
   </g>
   <g id="text_6">
    <text style="font-weight: 700; font-size: 9px; font-family: 'DejaVu Sans'; text-anchor: middle; fill: #ffffff" x="355.592903" y="139.108034" transform="rotate(-0 355.592903 139.108034)">11</text>
   </g>
   <g id="text_7">
    <text style="font-weight: 700; font-size: 9px; font-family: 'DejaVu Sans'; text-anchor: middle; fill: #ffffff" x="289.167097" y="172.320937" transform="rotate(-0 289.167097 172.320937)">13</text>
   </g>
   <g id="text_8">
    <text style="font-weight: 700; font-size: 9px; font-family: 'DejaVu Sans'; text-anchor: middle; fill: #ffffff" x="322.38" y="172.320937" transform="rotate(-0 322.38 172.320937)">14</text>
   </g>
   <g id="text_9">
    <text style="font-weight: 700; font-size: 9px; font-family: 'DejaVu Sans'; text-anchor: middle; fill: #ffffff" x="355.592903" y="172.320937" transform="rotate(-0 355.592903 172.320937)">14</text>
   </g>
   <g id="text_10">
    <text style="font-weight: 700; font-size: 9px; font-family: 'DejaVu Sans'; text-anchor: middle; fill: #ffffff" x="289.167097" y="205.533841" transform="rotate(-0 289.167097 205.533841)">13</text>
   </g>
   <g id="text_11">
    <text style="font-weight: 700; font-size: 9px; font-family: 'DejaVu Sans'; text-anchor: middle; fill: #ffffff" x="322.38" y="205.533841" transform="rotate(-0 322.38 205.533841)">12</text>
   </g>
   <g id="text_12">
    <text style="font-weight: 700; font-size: 9px; font-family: 'DejaVu Sans'; text-anchor: middle; fill: #ffffff" x="355.592903" y="205.533841" transform="rotate(-0 355.592903 205.533841)">12</text>
   </g>
   <g id="text_13">
    <text style="font-weight: 700; font-size: 9px; font-family: 'DejaVu Sans'; text-anchor: middle; fill: #ffffff" x="289.167097" y="238.746744" transform="rotate(-0 289.167097 238.746744)">15</text>
   </g>
   <g id="text_14">
    <text style="font-weight: 700; font-size: 9px; font-family: 'DejaVu Sans'; text-anchor: middle; fill: #ffffff" x="322.38" y="238.746744" transform="rotate(-0 322.38 238.746744)">11</text>
   </g>
   <g id="text_15">
    <text style="font-weight: 700; font-size: 9px; font-family: 'DejaVu Sans'; text-anchor: middle; fill: #ffffff" x="355.592903" y="238.746744" transform="rotate(-0 355.592903 238.746744)">14</text>
   </g>
   <g id="text_16">
    <text style="font-weight: 700; font-size: 9px; font-family: 'DejaVu Sans'; text-anchor: middle; fill: #ffffff" x="289.167097" y="271.959647" transform="rotate(-0 289.167097 271.959647)">15</text>
   </g>
   <g id="text_17">
    <text style="font-weight: 700; font-size: 9px; font-family: 'DejaVu Sans'; text-anchor: middle" x="322.38" y="271.959647" transform="rotate(-0 322.38 271.959647)">10</text>
   </g>
   <g id="text_18">
    <text style="font-weight: 700; font-size: 9px; font-family: 'DejaVu Sans'; text-anchor: middle; fill: #ffffff" x="355.592903" y="271.959647" transform="rotate(-0 355.592903 271.959647)">13</text>
   </g>
   <g id="text_19">
    <text style="font-weight: 700; font-size: 9px; font-family: 'DejaVu Sans'; text-anchor: middle; fill: #ffffff" x="289.167097" y="305.17255" transform="rotate(-0 289.167097 305.17255)">12</text>
   </g>
   <g id="text_20">
    <text style="font-weight: 700; font-size: 9px; font-family: 'DejaVu Sans'; text-anchor: middle; fill: #ffffff" x="322.38" y="305.17255" transform="rotate(-0 322.38 305.17255)">12</text>
   </g>
   <g id="text_21">
    <text style="font-weight: 700; font-size: 9px; font-family: 'DejaVu Sans'; text-anchor: middle; fill: #ffffff" x="355.592903" y="305.17255" transform="rotate(-0 355.592903 305.17255)">11</text>
   </g>
   <g id="text_22">
    <text style="font-weight: 700; font-size: 9px; font-family: 'DejaVu Sans'; text-anchor: middle; fill: #ffffff" x="289.167097" y="338.385454" transform="rotate(-0 289.167097 338.385454)">13</text>
   </g>
   <g id="text_23">
    <text style="font-weight: 700; font-size: 9px; font-family: 'DejaVu Sans'; text-anchor: middle; fill: #ffffff" x="322.38" y="338.385454" transform="rotate(-0 322.38 338.385454)">12</text>
   </g>
   <g id="text_24">
    <text style="font-weight: 700; font-size: 9px; font-family: 'DejaVu Sans'; text-anchor: middle; fill: #ffffff" x="355.592903" y="338.385454" transform="rotate(-0 355.592903 338.385454)">13</text>
   </g>
   <g id="text_25">
    <text style="font-weight: 700; font-size: 9px; font-family: 'DejaVu Sans'; text-anchor: middle; fill: #ffffff" x="289.167097" y="371.598357" transform="rotate(-0 289.167097 371.598357)">15</text>
   </g>
   <g id="text_26">
    <text style="font-weight: 700; font-size: 9px; font-family: 'DejaVu Sans'; text-anchor: middle; fill: #ffffff" x="322.38" y="371.598357" transform="rotate(-0 322.38 371.598357)">13</text>
   </g>
   <g id="text_27">
    <text style="font-weight: 700; font-size: 9px; font-family: 'DejaVu Sans'; text-anchor: middle; fill: #ffffff" x="355.592903" y="371.598357" transform="rotate(-0 355.592903 371.598357)">14</text>
   </g>
   <g id="text_28">
    <text style="font-weight: 700; font-size: 9px; font-family: 'DejaVu Sans'; text-anchor: middle; fill: #ffffff" x="289.167097" y="404.81126" transform="rotate(-0 289.167097 404.81126)">15</text>
   </g>
   <g id="text_29">
    <text style="font-weight: 700; font-size: 9px; font-family: 'DejaVu Sans'; text-anchor: middle; fill: #ffffff" x="322.38" y="404.81126" transform="rotate(-0 322.38 404.81126)">11</text>
   </g>
   <g id="text_30">
    <text style="font-weight: 700; font-size: 9px; font-family: 'DejaVu Sans'; text-anchor: middle; fill: #ffffff" x="355.592903" y="404.81126" transform="rotate(-0 355.592903 404.81126)">13</text>
   </g>
   <g id="text_31">
    <text style="font-weight: 700; font-size: 9px; font-family: 'DejaVu Sans'; text-anchor: middle; fill: #ffffff" x="289.167097" y="438.024163" transform="rotate(-0 289.167097 438.024163)">15</text>
   </g>
   <g id="text_32">
    <text style="font-weight: 700; font-size: 9px; font-family: 'DejaVu Sans'; text-anchor: middle; fill: #ffffff" x="322.38" y="438.024163" transform="rotate(-0 322.38 438.024163)">11</text>
   </g>
   <g id="text_33">
    <text style="font-weight: 700; font-size: 9px; font-family: 'DejaVu Sans'; text-anchor: middle; fill: #ffffff" x="355.592903" y="438.024163" transform="rotate(-0 355.592903 438.024163)">15</text>
   </g>
   <g id="text_34">
    <text style="font-weight: 700; font-size: 9px; font-family: 'DejaVu Sans'; text-anchor: middle; fill: #ffffff" x="289.167097" y="471.237067" transform="rotate(-0 289.167097 471.237067)">15</text>
   </g>
   <g id="text_35">
    <text style="font-weight: 700; font-size: 9px; font-family: 'DejaVu Sans'; text-anchor: middle; fill: #ffffff" x="322.38" y="471.237067" transform="rotate(-0 322.38 471.237067)">12</text>
   </g>
   <g id="text_36">
    <text style="font-weight: 700; font-size: 9px; font-family: 'DejaVu Sans'; text-anchor: middle; fill: #ffffff" x="355.592903" y="471.237067" transform="rotate(-0 355.592903 471.237067)">14</text>
   </g>
   <g id="text_37">
    <text style="font-weight: 700; font-size: 9px; font-family: 'DejaVu Sans'; text-anchor: middle; fill: #ffffff" x="289.167097" y="504.44997" transform="rotate(-0 289.167097 504.44997)">15</text>
   </g>
   <g id="text_38">
    <text style="font-weight: 700; font-size: 9px; font-family: 'DejaVu Sans'; text-anchor: middle; fill: #ffffff" x="322.38" y="504.44997" transform="rotate(-0 322.38 504.44997)">11</text>
   </g>
   <g id="text_39">
    <text style="font-weight: 700; font-size: 9px; font-family: 'DejaVu Sans'; text-anchor: middle; fill: #ffffff" x="355.592903" y="504.44997" transform="rotate(-0 355.592903 504.44997)">13</text>
   </g>
   <g id="text_40">
    <text style="font-weight: 700; font-size: 9px; font-family: 'DejaVu Sans'; text-anchor: middle; fill: #ffffff" x="289.167097" y="537.662873" transform="rotate(-0 289.167097 537.662873)">13</text>
   </g>
   <g id="text_41">
    <text style="font-weight: 700; font-size: 9px; font-family: 'DejaVu Sans'; text-anchor: middle" x="322.38" y="537.662873" transform="rotate(-0 322.38 537.662873)">10</text>
   </g>
   <g id="text_42">
    <text style="font-weight: 700; font-size: 9px; font-family: 'DejaVu Sans'; text-anchor: middle; fill: #ffffff" x="355.592903" y="537.662873" transform="rotate(-0 355.592903 537.662873)">13</text>
   </g>
   <g id="text_43">
    <text style="font-weight: 700; font-size: 9px; font-family: 'DejaVu Sans'; text-anchor: middle; fill: #ffffff" x="289.167097" y="570.875776" transform="rotate(-0 289.167097 570.875776)">12</text>
   </g>
   <g id="text_44">
    <text style="font-weight: 700; font-size: 9px; font-family: 'DejaVu Sans'; text-anchor: middle; fill: #ffffff" x="322.38" y="570.875776" transform="rotate(-0 322.38 570.875776)">11</text>
   </g>
   <g id="text_45">
    <text style="font-weight: 700; font-size: 9px; font-family: 'DejaVu Sans'; text-anchor: middle; fill: #ffffff" x="355.592903" y="570.875776" transform="rotate(-0 355.592903 570.875776)">13</text>
   </g>
   <g id="text_46">
    <text style="font-weight: 700; font-size: 9px; font-family: 'DejaVu Sans'; text-anchor: middle; fill: #ffffff" x="289.167097" y="604.088679" transform="rotate(-0 289.167097 604.088679)">15</text>
   </g>
   <g id="text_47">
    <text style="font-weight: 700; font-size: 9px; font-family: 'DejaVu Sans'; text-anchor: middle; fill: #ffffff" x="322.38" y="604.088679" transform="rotate(-0 322.38 604.088679)">12</text>
   </g>
   <g id="text_48">
    <text style="font-weight: 700; font-size: 9px; font-family: 'DejaVu Sans'; text-anchor: middle; fill: #ffffff" x="355.592903" y="604.088679" transform="rotate(-0 355.592903 604.088679)">15</text>
   </g>
   <g id="text_49">
    <text style="font-weight: 700; font-size: 9px; font-family: 'DejaVu Sans'; text-anchor: middle; fill: #ffffff" x="289.167097" y="637.301583" transform="rotate(-0 289.167097 637.301583)">15</text>
   </g>
   <g id="text_50">
    <text style="font-weight: 700; font-size: 9px; font-family: 'DejaVu Sans'; text-anchor: middle" x="322.38" y="637.301583" transform="rotate(-0 322.38 637.301583)">10</text>
   </g>
   <g id="text_51">
    <text style="font-weight: 700; font-size: 9px; font-family: 'DejaVu Sans'; text-anchor: middle; fill: #ffffff" x="355.592903" y="637.301583" transform="rotate(-0 355.592903 637.301583)">14</text>
   </g>
   <g id="text_52">
    <text style="font-weight: 700; font-size: 9px; font-family: 'DejaVu Sans'; text-anchor: middle; fill: #ffffff" x="289.167097" y="670.514486" transform="rotate(-0 289.167097 670.514486)">13</text>
   </g>
   <g id="text_53">
    <text style="font-weight: 700; font-size: 9px; font-family: 'DejaVu Sans'; text-anchor: middle; fill: #ffffff" x="322.38" y="670.514486" transform="rotate(-0 322.38 670.514486)">12</text>
   </g>
   <g id="text_54">
    <text style="font-weight: 700; font-size: 9px; font-family: 'DejaVu Sans'; text-anchor: middle; fill: #ffffff" x="355.592903" y="670.514486" transform="rotate(-0 355.592903 670.514486)">12</text>
   </g>
   <g id="text_55">
    <text style="font-size: 8.5px; font-family: 'DejaVu Sans'; text-anchor: end" x="267.57871" y="105.757162" transform="rotate(-0 267.57871 105.757162)">I — Power</text>
   </g>
   <g id="text_56">
    <text style="font-size: 8.5px; font-family: 'DejaVu Sans'; text-anchor: end" x="267.57871" y="138.970066" transform="rotate(-0 267.57871 138.970066)">II — Facility</text>
   </g>
   <g id="text_57">
    <text style="font-size: 8.5px; font-family: 'DejaVu Sans'; text-anchor: end" x="267.57871" y="172.182969" transform="rotate(-0 267.57871 172.182969)">III — Compute</text>
   </g>
   <g id="text_58">
    <text style="font-size: 8.5px; font-family: 'DejaVu Sans'; text-anchor: end" x="267.57871" y="205.395872" transform="rotate(-0 267.57871 205.395872)">IV — Fabric</text>
   </g>
   <g id="text_59">
    <text style="font-size: 8.5px; font-family: 'DejaVu Sans'; text-anchor: end" x="267.57871" y="238.608775" transform="rotate(-0 267.57871 238.608775)">V — Parallelism</text>
   </g>
   <g id="text_60">
    <text style="font-size: 8.5px; font-family: 'DejaVu Sans'; text-anchor: end" x="267.57871" y="271.821678" transform="rotate(-0 267.57871 271.821678)">VI — Data</text>
   </g>
   <g id="text_61">
    <text style="font-size: 8.5px; font-family: 'DejaVu Sans'; text-anchor: end" x="267.57871" y="305.034582" transform="rotate(-0 267.57871 305.034582)">VII — Pretraining</text>
   </g>
   <g id="text_62">
    <text style="font-size: 8.5px; font-family: 'DejaVu Sans'; text-anchor: end" x="267.57871" y="338.247485" transform="rotate(-0 267.57871 338.247485)">VIII — Post-training</text>
   </g>
   <g id="text_63">
    <text style="font-size: 8.5px; font-family: 'DejaVu Sans'; text-anchor: end" x="267.57871" y="371.460388" transform="rotate(-0 267.57871 371.460388)">IX — Model Providers</text>
   </g>
   <g id="text_64">
    <text style="font-size: 8.5px; font-family: 'DejaVu Sans'; text-anchor: end" x="267.57871" y="404.673291" transform="rotate(-0 267.57871 404.673291)">X — Inference Engines</text>
   </g>
   <g id="text_65">
    <text style="font-size: 8.5px; font-family: 'DejaVu Sans'; text-anchor: end" x="267.57871" y="437.886195" transform="rotate(-0 267.57871 437.886195)">XI — Retrieval &amp; Memory</text>
   </g>
   <g id="text_66">
    <text style="font-size: 8.5px; font-family: 'DejaVu Sans'; text-anchor: end" x="267.57871" y="471.099098" transform="rotate(-0 267.57871 471.099098)">XII — Orchestration</text>
   </g>
   <g id="text_67">
    <text style="font-size: 8.5px; font-family: 'DejaVu Sans'; text-anchor: end" x="267.57871" y="504.312001" transform="rotate(-0 267.57871 504.312001)">XIII — Application Layer</text>
   </g>
   <g id="text_68">
    <text style="font-size: 8.5px; font-family: 'DejaVu Sans'; text-anchor: end" x="267.57871" y="537.524904" transform="rotate(-0 267.57871 537.524904)">XIV — The User</text>
   </g>
   <g id="text_69">
    <text style="font-size: 8.5px; font-family: 'DejaVu Sans'; text-anchor: end" x="267.57871" y="570.737807" transform="rotate(-0 267.57871 570.737807)">Meta-A — Safety</text>
   </g>
   <g id="text_70">
    <text style="font-size: 8.5px; font-family: 'DejaVu Sans'; text-anchor: end" x="267.57871" y="603.950711" transform="rotate(-0 267.57871 603.950711)">Meta-B — Regulation</text>
   </g>
   <g id="text_71">
    <text style="font-size: 8.5px; font-family: 'DejaVu Sans'; text-anchor: end" x="267.57871" y="637.163614" transform="rotate(-0 267.57871 637.163614)">Meta-C — Economics</text>
   </g>
   <g id="text_72">
    <text style="font-size: 8.5px; font-family: 'DejaVu Sans'; text-anchor: end" x="267.57871" y="670.376517" transform="rotate(-0 267.57871 670.376517)">Meta-D — Geopolitics</text>
   </g>
   <g id="text_73">
    <text style="font-weight: 700; font-size: 10px; font-family: 'DejaVu Sans'; text-anchor: middle" x="289.167097" y="76.344204" transform="rotate(-0 289.167097 76.344204)">Opportunity</text>
   </g>
   <g id="text_74">
    <text style="font-weight: 700; font-size: 10px; font-family: 'DejaVu Sans'; text-anchor: middle" x="322.38" y="76.344204" transform="rotate(-0 322.38 76.344204)">Challenge</text>
   </g>
   <g id="text_75">
    <text style="font-weight: 700; font-size: 10px; font-family: 'DejaVu Sans'; text-anchor: middle" x="355.592903" y="76.422329" transform="rotate(-0 355.592903 76.422329)">Open Question</text>
   </g>
  </g>
  <g id="axes_2">
   <g id="patch_56">
    <path d="M 154.08 724.2375 
L 175.1175 724.2375 
L 175.1175 704.4375 
L 154.08 704.4375 
z
" clip-path="url(#p8f1542cc16)" style="fill: #ffffff; stroke: #000000; stroke-width: 0.3; stroke-linejoin: miter"/>
   </g>
   <g id="patch_57">
    <path d="M 175.1175 724.2375 
L 196.155 724.2375 
L 196.155 704.4375 
L 175.1175 704.4375 
z
" clip-path="url(#p8f1542cc16)" style="fill: #f0f3fc; stroke: #000000; stroke-width: 0.3; stroke-linejoin: miter"/>
   </g>
   <g id="patch_58">
    <path d="M 196.155 724.2375 
L 217.1925 724.2375 
L 217.1925 704.4375 
L 196.155 704.4375 
z
" clip-path="url(#p8f1542cc16)" style="fill: #e1e7fa; stroke: #000000; stroke-width: 0.3; stroke-linejoin: miter"/>
   </g>
   <g id="patch_59">
    <path d="M 217.1925 724.2375 
L 238.23 724.2375 
L 238.23 704.4375 
L 217.1925 704.4375 
z
" clip-path="url(#p8f1542cc16)" style="fill: #d2dcf7; stroke: #000000; stroke-width: 0.3; stroke-linejoin: miter"/>
   </g>
   <g id="patch_60">
    <path d="M 238.23 724.2375 
L 259.2675 724.2375 
L 259.2675 704.4375 
L 238.23 704.4375 
z
" clip-path="url(#p8f1542cc16)" style="fill: #c3d0f5; stroke: #000000; stroke-width: 0.3; stroke-linejoin: miter"/>
   </g>
   <g id="patch_61">
    <path d="M 259.2675 724.2375 
L 280.305 724.2375 
L 280.305 704.4375 
L 259.2675 704.4375 
z
" clip-path="url(#p8f1542cc16)" style="fill: #b4c4f2; stroke: #000000; stroke-width: 0.3; stroke-linejoin: miter"/>
   </g>
   <g id="patch_62">
    <path d="M 280.305 724.2375 
L 301.3425 724.2375 
L 301.3425 704.4375 
L 280.305 704.4375 
z
" clip-path="url(#p8f1542cc16)" style="fill: #a5b8ef; stroke: #000000; stroke-width: 0.3; stroke-linejoin: miter"/>
   </g>
   <g id="patch_63">
    <path d="M 301.3425 724.2375 
L 322.38 724.2375 
L 322.38 704.4375 
L 301.3425 704.4375 
z
" clip-path="url(#p8f1542cc16)" style="fill: #96aced; stroke: #000000; stroke-width: 0.3; stroke-linejoin: miter"/>
   </g>
   <g id="patch_64">
    <path d="M 322.38 724.2375 
L 343.4175 724.2375 
L 343.4175 704.4375 
L 322.38 704.4375 
z
" clip-path="url(#p8f1542cc16)" style="fill: #86a1ea; stroke: #000000; stroke-width: 0.3; stroke-linejoin: miter"/>
   </g>
   <g id="patch_65">
    <path d="M 343.4175 724.2375 
L 364.455 724.2375 
L 364.455 704.4375 
L 343.4175 704.4375 
z
" clip-path="url(#p8f1542cc16)" style="fill: #7795e8; stroke: #000000; stroke-width: 0.3; stroke-linejoin: miter"/>
   </g>
   <g id="patch_66">
    <path d="M 364.455 724.2375 
L 385.4925 724.2375 
L 385.4925 704.4375 
L 364.455 704.4375 
z
" clip-path="url(#p8f1542cc16)" style="fill: #6889e5; stroke: #000000; stroke-width: 0.3; stroke-linejoin: miter"/>
   </g>
   <g id="patch_67">
    <path d="M 385.4925 724.2375 
L 406.53 724.2375 
L 406.53 704.4375 
L 385.4925 704.4375 
z
" clip-path="url(#p8f1542cc16)" style="fill: #597de2; stroke: #000000; stroke-width: 0.3; stroke-linejoin: miter"/>
   </g>
   <g id="patch_68">
    <path d="M 406.53 724.2375 
L 427.5675 724.2375 
L 427.5675 704.4375 
L 406.53 704.4375 
z
" clip-path="url(#p8f1542cc16)" style="fill: #4a71e0; stroke: #000000; stroke-width: 0.3; stroke-linejoin: miter"/>
   </g>
   <g id="patch_69">
    <path d="M 427.5675 724.2375 
L 448.605 724.2375 
L 448.605 704.4375 
L 427.5675 704.4375 
z
" clip-path="url(#p8f1542cc16)" style="fill: #3b66dd; stroke: #000000; stroke-width: 0.3; stroke-linejoin: miter"/>
   </g>
   <g id="patch_70">
    <path d="M 448.605 724.2375 
L 469.6425 724.2375 
L 469.6425 704.4375 
L 448.605 704.4375 
z
" clip-path="url(#p8f1542cc16)" style="fill: #2c5adb; stroke: #000000; stroke-width: 0.3; stroke-linejoin: miter"/>
   </g>
   <g id="patch_71">
    <path d="M 469.6425 724.2375 
L 490.68 724.2375 
L 490.68 704.4375 
L 469.6425 704.4375 
z
" clip-path="url(#p8f1542cc16)" style="fill: #1d4ed8; stroke: #000000; stroke-width: 0.3; stroke-linejoin: miter"/>
   </g>
   <g id="text_76">
    <text style="font-size: 7.5px; font-family: 'DejaVu Sans'; text-anchor: middle" x="164.59875" y="739.836328" transform="rotate(-0 164.59875 739.836328)">0</text>
   </g>
   <g id="text_77">
    <text style="font-size: 7.5px; font-family: 'DejaVu Sans'; text-anchor: middle" x="269.78625" y="739.836328" transform="rotate(-0 269.78625 739.836328)">5</text>
   </g>
   <g id="text_78">
    <text style="font-size: 7.5px; font-family: 'DejaVu Sans'; text-anchor: middle" x="374.97375" y="739.836328" transform="rotate(-0 374.97375 739.836328)">10</text>
   </g>
   <g id="text_79">
    <text style="font-size: 7.5px; font-family: 'DejaVu Sans'; text-anchor: middle" x="480.16125" y="739.836328" transform="rotate(-0 480.16125 739.836328)">15</text>
   </g>
   <g id="text_80">
    <text style="font-size: 8px; font-family: 'DejaVu Sans'; text-anchor: middle" x="322.38" y="688.91375" transform="rotate(-0 322.38 688.91375)">Score (0–15) — darker = higher</text>
   </g>
  </g>
  <g id="text_81">
   <text style="font-weight: 700; font-size: 16px; font-family: 'DejaVu Sans'; text-anchor: start" x="7.2" y="19.3575" transform="rotate(-0 7.2 19.3575)">Plate 2 — OCQ Heatmap</text>
  </g>
  <g id="text_82">
   <text style="font-size: 10px; font-family: 'DejaVu Sans'; text-anchor: start" x="7.2" y="39.1575" transform="rotate(-0 7.2 39.1575)">Opportunity / Challenge / Open Question. Score out of 15.</text>
  </g>
  <g id="text_83">
   <text style="font-style: italic; font-size: 7px; font-family: 'DejaVu Sans'; text-anchor: start; fill: #6b7280" x="7.2" y="755.9175" transform="rotate(-0 7.2 755.9175)">Source: AI_STACK_MASTER Ch 2 §2.1.</text>
  </g>
 </g>
 <defs>
  <clipPath id="pb2635e8da7">
   <rect x="272.560645" y="66.8775" width="99.63871" height="617.76"/>
  </clipPath>
  <clipPath id="p8f1542cc16">
   <rect x="154.08" y="704.4375" width="336.6" height="19.8"/>
  </clipPath>
 </defs>
</svg>
